<svg xmlns="http://www.w3.org/2000/svg" version="1.1" xmlns:xlink="http://www.w3.org/1999/xlink" viewBox="0 0 200 200"><rect width="200" height="200" fill="url('#gradient')"></rect><defs><linearGradient id="gradient" gradientTransform="rotate(45 0.5 0.5)"><stop offset="0%" stop-color="#270ce8"></stop><stop offset="100%" stop-color="#d9e241"></stop></linearGradient></defs><g><g fill="#1b3855" transform="matrix(1.6907906976744187,0,0,1.6907906976744187,27.941311808940966,109.07230221362447)" stroke="#0e5278" stroke-width="0.35"><path d="M8.41-3.78L8.41-3.78Q8.41-4.53 7.88-4.95Q7.34-5.37 6.01-5.82Q4.67-6.27 3.82-6.69L3.82-6.69Q1.05-8.05 1.05-10.42L1.05-10.42Q1.05-11.60 1.74-12.50Q2.43-13.41 3.69-13.91Q4.95-14.41 6.52-14.41L6.52-14.41Q8.06-14.41 9.27-13.87Q10.49-13.32 11.16-12.31Q11.84-11.30 11.84-10L11.84-10L8.42-10Q8.42-10.87 7.89-11.35Q7.35-11.83 6.45-11.83L6.45-11.83Q5.53-11.83 5.00-11.42Q4.46-11.02 4.46-10.39L4.46-10.39Q4.46-9.84 5.05-9.40Q5.63-8.96 7.11-8.48Q8.58-8.01 9.53-7.46L9.53-7.46Q11.84-6.13 11.84-3.80L11.84-3.80Q11.84-1.93 10.43-0.87Q9.02 0.20 6.57 0.20L6.57 0.20Q4.84 0.20 3.44-0.42Q2.04-1.04 1.33-2.12Q0.63-3.20 0.63-4.61L0.63-4.61L4.06-4.61Q4.06-3.47 4.65-2.92Q5.24-2.38 6.57-2.38L6.57-2.38Q7.42-2.38 7.92-2.75Q8.41-3.12 8.41-3.78ZM13.04-4.82L13.03-5.38Q13.03-6.96 13.64-8.20Q14.26-9.43 15.41-10.10Q16.56-10.76 18.12-10.76L18.12-10.76Q20.49-10.76 21.86-9.29Q23.22-7.82 23.22-5.29L23.22-5.29L23.22-5.18Q23.22-2.71 21.85-1.25Q20.48 0.20 18.13 0.20L18.13 0.20Q15.88 0.20 14.51-1.16Q13.14-2.51 13.04-4.82L13.04-4.82ZM16.33-5.77L16.32-5.18Q16.32-3.71 16.78-3.03Q17.24-2.34 18.13-2.34L18.13-2.34Q19.89-2.34 19.93-5.05L19.93-5.05L19.93-5.38Q19.93-8.22 18.12-8.22L18.12-8.22Q16.46-8.22 16.33-5.77L16.33-5.77ZM31.06 0L30.97-1.14Q29.92 0.20 28.14 0.20L28.14 0.20Q26.41 0.20 25.51-0.82Q24.62-1.83 24.62-3.72L24.62-3.72L24.62-10.57L27.91-10.57L27.91-3.70Q27.91-2.34 29.23-2.34L29.23-2.34Q30.36-2.34 30.84-3.15L30.84-3.15L30.84-10.57L34.15-10.57L34.15 0L31.06 0ZM39.42-15L39.42 0L36.12 0L36.12-15L39.42-15ZM48.94-3.78L48.94-3.78Q48.94-4.53 48.40-4.95Q47.87-5.37 46.53-5.82Q45.20-6.27 44.35-6.69L44.35-6.69Q41.58-8.05 41.58-10.42L41.58-10.42Q41.58-11.60 42.27-12.50Q42.96-13.41 44.22-13.91Q45.48-14.41 47.05-14.41L47.05-14.41Q48.58-14.41 49.80-13.87Q51.02-13.32 51.69-12.31Q52.36-11.30 52.36-10L52.36-10L48.95-10Q48.95-10.87 48.41-11.35Q47.88-11.83 46.97-11.83L46.97-11.83Q46.05-11.83 45.52-11.42Q44.99-11.02 44.99-10.39L44.99-10.39Q44.99-9.84 45.58-9.40Q46.16-8.96 47.64-8.48Q49.11-8.01 50.06-7.46L50.06-7.46Q52.36-6.13 52.36-3.80L52.36-3.80Q52.36-1.93 50.96-0.87Q49.55 0.20 47.10 0.20L47.10 0.20Q45.37 0.20 43.97-0.42Q42.57-1.04 41.86-2.12Q41.15-3.20 41.15-4.61L41.15-4.61L44.59-4.61Q44.59-3.47 45.18-2.92Q45.77-2.38 47.10-2.38L47.10-2.38Q47.95-2.38 48.44-2.75Q48.94-3.12 48.94-3.78ZM56.52-10.57L58.19-4.61L59.95-10.57L63.48-10.57L59.17 1.77L58.98 2.22Q58.07 4.27 55.74 4.27L55.74 4.27Q55.10 4.27 54.38 4.07L54.38 4.07L54.38 1.72L54.81 1.72Q55.51 1.72 55.87 1.52Q56.24 1.32 56.42 0.80L56.42 0.80L56.68 0.10L53.01-10.57L56.52-10.57ZM64.27-10.57L67.35-10.57L67.46-9.33Q68.55-10.76 70.48-10.76L70.48-10.76Q72.13-10.76 72.94-9.78Q73.76-8.79 73.79-6.81L73.79-6.81L73.79 0L70.49 0L70.49-6.67Q70.49-7.47 70.17-7.85Q69.84-8.22 68.99-8.22L68.99-8.22Q68.03-8.22 67.56-7.46L67.56-7.46L67.56 0L64.27 0L64.27-10.57ZM80.08-2.34L80.08-2.34Q80.77-2.34 81.15-2.72Q81.53-3.10 81.52-3.77L81.52-3.77L84.61-3.77Q84.61-2.03 83.36-0.92Q82.12 0.20 80.16 0.20L80.16 0.20Q77.85 0.20 76.52-1.25Q75.20-2.70 75.20-5.25L75.20-5.25L75.20-5.39Q75.20-6.99 75.79-8.22Q76.38-9.44 77.49-10.10Q78.60-10.76 80.13-10.76L80.13-10.76Q82.19-10.76 83.40-9.62Q84.61-8.48 84.61-6.52L84.61-6.52L81.52-6.52Q81.52-7.34 81.12-7.78Q80.72-8.22 80.05-8.22L80.05-8.22Q78.77-8.22 78.55-6.59L78.55-6.59Q78.49-6.07 78.49-5.17L78.49-5.17Q78.49-3.57 78.87-2.96Q79.25-2.34 80.08-2.34Z"></path></g></g></svg>